<?xml version="1.0" encoding="utf-8"?>
<!-- Generator: Adobe Illustrator 26.1.0, SVG Export Plug-In . SVG Version: 6.00 Build 0)  -->
<svg version="1.1" id="Capa_1" xmlns="http://www.w3.org/2000/svg" xmlns:xlink="http://www.w3.org/1999/xlink" x="0px" y="0px"
	 viewBox="0 0 841.89 595.28" style="enable-background:new 0 0 841.89 595.28;" xml:space="preserve">
<style type="text/css">
	.st0{fill:none;stroke:#FFFFFF;stroke-width:10;stroke-miterlimit:10;}
</style>
<path class="st0" d="M340.15,148.48c0,0,114.81,12.72,151.33,133.61l28.7-19.09c0,0-27.4-122.16-155.25-141.24L340.15,148.48z"/>
<path class="st0" d="M340.15,148.48c0,0,73.06,103.07,151.33,133.61"/>
<path class="st0" d="M372.76,123.08c0,0,76.98-85.3,164.39-42.04c0,0,77.02,59.9-18.89,175.01"/>
<path class="st0" d="M525.9,246.52c29.2,1.33,40.5-15.32,40.5-15.32s-47.52,131.06,71.2,44.54c0,0-33.92,57.26,0,100.52
	L491.48,573.48c0,0-67.84-105.61-189.17-133.61l142.79-183.82"/>
<path class="st0" d="M491.48,573.48c0,0-134.37-120.88-189.17-133.61"/>
<path class="st0" d="M384.1,486.18c-14.68-6.83-44.98,5.14-81.79,24.95l-87.41-255.08l-63.93,74.39
	c-6.65-20.48-26.28-40.45-61.32-59.81l106.98-134.88l27.4-7.63c0,0,110.89,125.97,116.11-30.54l23.48-10.18l33.27,14.46"/>
<path class="st0" d="M302.32,511.13c0,0,80.56-25.94,87.87-20.5"/>
<path class="st0" d="M89.67,270.64c0,0,37.83,41.99,61.32,59.81"/>
<path class="st0" d="M520.19,74.16c15.66-18.33,33.92-5.36,33.92-5.36s22.18,20.6,0,32.96"/>
<path class="st0" d="M224.04,128.13c0,0,82.19,40.72,116.11-30.54"/>
<path class="st0" d="M572.37,215.29"/>
</svg>
